<!DOCTYPE svg PUBLIC "-//W3C//DTD SVG 1.1//EN" "http://www.w3.org/Graphics/SVG/1.1/DTD/svg11.dtd">
<!-- Uploaded to: SVG Repo, www.svgrepo.com, Transformed by: SVG Repo Mixer Tools -->
<svg fill="#000000" width="64px" height="64px" viewBox="-2.4 -2.4 28.80 28.80" xmlns="http://www.w3.org/2000/svg" stroke="#000000">
<g id="SVGRepo_bgCarrier" stroke-width="0" transform="translate(0,0), scale(1)">
<path transform="translate(-2.4, -2.4), scale(0.8999999999999999)" d="M16,31.752169219010018C18.595419448196747,31.43781387280986,19.57392018003427,28.091456936146958,21.329186831968084,26.153917162007705C22.54504912651765,24.81179540918423,23.8523372713712,23.615728565815292,24.780014725293356,22.060406586225923C25.66586864103609,20.575204957109253,26.197645481619247,18.966890658809668,26.616642956201872,17.289093842904677C27.079829962445327,15.434348333953908,28.0198838680541,13.485773651596896,27.370377497522448,11.687784613709118C26.720810695237958,9.88962828627028,24.87809725241147,8.796293574226896,23.21074450275691,7.8607520108755935C21.72001412302097,7.024312193157128,19.979454123298094,6.99694483356617,18.315175137811178,6.606965228715865C16.670060315020933,6.221476236714071,15.094425597623573,5.853291016040401,13.428899776938355,5.568636341479156C10.852428763634844,5.128292211895706,8.079182037106598,3.2202425989213475,5.780601652438984,4.464683859115297C3.650124767250191,5.618114627733731,3.597852809533073,8.747176829341658,3.157548432057091,11.129500558706528C2.763620101775762,13.260900692127823,2.82794057068879,15.434270075595018,3.36508356254747,17.534156611683017C3.8644130189100574,19.48621633950276,5.0357305538218124,21.120378443526658,6.1436704095535735,22.803333096227714C7.272452199894518,24.517946534954344,8.427445694388055,26.152580568698763,9.94728496751788,27.532484970575744C11.795048135817064,29.210120609186067,13.522372710098207,32.05225766329334,16,31.752169219010018" fill="#ffffff" strokewidth="0"/>
</g>
<g id="SVGRepo_tracerCarrier" stroke-linecap="round" stroke-linejoin="round"/>
<g id="SVGRepo_iconCarrier">
<path d="M12,2A10,10,0,1,0,22,12,10,10,0,0,0,12,2ZM10,16,7,17l1-3,7-7,2,2Z"/>
</g>
</svg>