<!DOCTYPE svg PUBLIC "-//W3C//DTD SVG 1.1//EN" "http://www.w3.org/Graphics/SVG/1.1/DTD/svg11.dtd">
<!-- Uploaded to: SVG Repo, www.svgrepo.com, Transformed by: SVG Repo Mixer Tools -->
<svg fill="#000000" width="64px" height="64px" viewBox="-2.4 -2.4 28.80 28.80" xmlns="http://www.w3.org/2000/svg" stroke="#000000">
<g id="SVGRepo_bgCarrier" stroke-width="0" transform="translate(0,0), scale(1)">
<path transform="translate(-2.4, -2.4), scale(0.8999999999999999)" d="M16,29.429457538894244C17.83573452439969,29.567267428223158,19.238420742831014,27.760569226088446,21.00381772219182,27.238758613956456C23.048476501926995,26.634404657351773,25.671474691339412,27.566685018372407,27.228822091378184,26.110476823777848C28.7470986969485,24.690802039180877,28.074352808646278,22.10685978737868,28.63326169119343,20.104795551133382C29.169759632321284,18.18300941694951,30.851999140011632,16.438037286722512,30.47607729571478,14.478502966187078C30.09500993819182,12.492147087084883,27.85414423295102,11.47857602121424,26.664576208674013,9.84280405512878C25.595605121033785,8.372864630033249,25.079287947644257,6.559932588092165,23.787633914833727,5.2812414763747135C22.4097878920863,3.9172233896051756,20.77561336989792,2.80080104885812,18.935194827966058,2.1909940351654793C17.01672405980522,1.5553250808846983,14.898066709332559,1.1234744477895846,12.959010516485561,1.6932693132506191C11.034583190283847,2.258765462082014,9.725974644043443,3.974463455067064,8.248692440516079,5.331240415114792C6.886901312378475,6.581947167448777,5.751470176848203,7.979106172901022,4.568049767593118,9.399760455957473C3.205927626808755,11.034939837872473,1.2731069361880991,12.342165370684729,0.7009751345388029,14.392007691205121C0.12205394555921645,16.466175129539124,0.6715153267329232,18.717415020430174,1.4019855377425046,20.743182424680278C2.1235643383592038,22.744291835927736,3.0496394429585907,24.935359567982612,4.888453922902595,26.00488102622029C6.767872497218973,27.09801930426074,9.242093012982636,25.87141069945067,11.319855471822727,26.511776717472728C13.096092725857144,27.059212721328255,14.14653171210894,29.290316363395327,16,29.429457538894244" fill="#ffffff" strokewidth="0"/>
</g>
<g id="SVGRepo_tracerCarrier" stroke-linecap="round" stroke-linejoin="round"/>
<g id="SVGRepo_iconCarrier">
<path d="M12,2A10,10,0,1,0,22,12,10,10,0,0,0,12,2ZM10,16,7,17l1-3,7-7,2,2Z"/>
</g>
</svg>