<!DOCTYPE svg PUBLIC "-//W3C//DTD SVG 1.1//EN" "http://www.w3.org/Graphics/SVG/1.1/DTD/svg11.dtd">
<!-- Uploaded to: SVG Repo, www.svgrepo.com, Transformed by: SVG Repo Mixer Tools -->
<svg fill="#000000" width="64px" height="64px" viewBox="-2.4 -2.4 28.80 28.80" xmlns="http://www.w3.org/2000/svg" stroke="#000000">
<g id="SVGRepo_bgCarrier" stroke-width="0" transform="translate(0,0), scale(1)">
<path transform="translate(-2.4, -2.4), scale(0.8999999999999999)" d="M16,27.591618163217056C17.735501771368714,27.40012215450713,19.479903659305272,28.030959466163413,21.180681374060345,27.63600088002016C23.02022802182603,27.20881704709304,24.854433827076573,26.504344089045368,26.23428227649067,25.214989152237905C27.643672945694657,23.89802943974184,28.386290428114588,22.04958499809196,29.08380153125376,20.251184819106605C29.80421121676824,18.393744985473546,30.529562523795654,16.47472299174467,30.395138507125118,14.487009975665124C30.259355804867226,12.479206226592794,29.289214472807682,10.650777956016302,28.31545101722647,8.88967104001265C27.331207502780114,7.109610338013291,26.598756504142234,4.675706556591844,24.64927724442142,4.09529117563563C22.474967526435073,3.4479373774410425,20.326884858763982,5.211041550158306,18.154381513310334,5.8644318651764635C16.783610338086703,6.276697564040165,15.56257518504371,7.425946402488857,14.141321849389499,7.255606808808098C11.820541350250261,6.977457377367264,10.04597286237204,4.312692547833149,7.72819403978769,4.6148358267180765C5.722312925302391,4.876320439088541,3.979717060146511,6.762798009273332,3.3017222688269214,8.668645933662585C2.6083929050445995,10.617599444516024,4.3721480391283665,12.69814587915457,4.1221027619128705,14.751582694226553C3.8665730491400554,16.850059119759095,0.7671297026213961,18.78180244375453,1.8491065270404299,20.597904008658237C3.0855351643459334,22.673253436136033,7.0252670421389505,20.83683775781622,8.753259633167014,22.524994334272826C10.319306889752008,24.054938958440978,8.489709881975124,27.583850950237046,10.284000388688195,28.83834532662849C11.899893975103451,29.9681118886321,14.040223554291638,27.807860735542924,16,27.591618163217056" fill="#ffffff" strokewidth="0"/>
</g>
<g id="SVGRepo_tracerCarrier" stroke-linecap="round" stroke-linejoin="round"/>
<g id="SVGRepo_iconCarrier">
<path d="M12,2A10,10,0,1,0,22,12,10,10,0,0,0,12,2ZM10,16,7,17l1-3,7-7,2,2Z"/>
</g>
</svg>