<!DOCTYPE svg PUBLIC "-//W3C//DTD SVG 1.1//EN" "http://www.w3.org/Graphics/SVG/1.1/DTD/svg11.dtd">
<!-- Uploaded to: SVG Repo, www.svgrepo.com, Transformed by: SVG Repo Mixer Tools -->
<svg fill="#000000" width="64px" height="64px" viewBox="-2.4 -2.4 28.80 28.80" xmlns="http://www.w3.org/2000/svg" stroke="#000000">
<g id="SVGRepo_bgCarrier" stroke-width="0" transform="translate(0,0), scale(1)">
<path transform="translate(-2.4, -2.4), scale(0.8999999999999999)" d="M16,27.728359578384293C17.603102605692268,27.520279892504828,19.02227746284123,26.738857439918224,20.561993961470186,26.24640619979101C22.261549222180193,25.7028333430043,24.295565612503264,25.85932877634326,25.61154662012494,24.654275448717733C26.923017163589588,23.45335238574654,27.4846698313354,21.550205586793364,27.626264693193157,19.777602392435686C27.76108743865838,18.08977822884558,26.759114472881585,16.560453855536856,26.39007865367752,14.907958728754997C26.059451609478227,13.42745317647552,26.20674208344773,11.853633195171858,25.551176975760185,10.485625401967106C24.87806281177434,9.080996919988735,23.97415426740926,7.635378084466517,22.57600718762165,6.948902598069079C21.179607776824778,6.263285198734031,19.51930267673152,6.789691012460159,17.963943226325334,6.760373564123597C16.64236792590438,6.7354627850860895,15.332435401931056,7.074044073762072,14.04193773245495,6.788041299873894C11.795824623334534,6.2902530474272025,9.746274385463295,3.5856090966211442,7.621738781767549,4.468312734240062C5.768302705014104,5.238379738153024,6.5430128797307,8.268015803542838,5.902112526678627,10.169981949031348C5.374082953443175,11.736987439554111,4.780443649927451,13.224176637262497,4.155432862591745,14.755085828969733C3.33482345306422,16.76509671726559,1.2939884244421456,18.527018382950907,1.6135496926593724,20.674441063730917C1.91875534448109,22.725395306967563,4.049206413768272,24.027379368278712,5.71833586504013,25.25765196922991C7.245010329963387,26.382924645555722,9.034319318627569,27.060184412167498,10.878392232531912,27.503319387246776C12.558297014874098,27.907004381612126,14.286645321894127,27.95074977471638,16,27.728359578384293" fill="#ffffff" strokewidth="0"/>
</g>
<g id="SVGRepo_tracerCarrier" stroke-linecap="round" stroke-linejoin="round"/>
<g id="SVGRepo_iconCarrier">
<path d="M12,2A10,10,0,1,0,22,12,10,10,0,0,0,12,2ZM10,16,7,17l1-3,7-7,2,2Z"/>
</g>
</svg>