<!DOCTYPE svg PUBLIC "-//W3C//DTD SVG 1.1//EN" "http://www.w3.org/Graphics/SVG/1.1/DTD/svg11.dtd">
<!-- Uploaded to: SVG Repo, www.svgrepo.com, Transformed by: SVG Repo Mixer Tools -->
<svg fill="#000000" width="64px" height="64px" viewBox="-2.4 -2.4 28.80 28.80" xmlns="http://www.w3.org/2000/svg" stroke="#000000">
<g id="SVGRepo_bgCarrier" stroke-width="0" transform="translate(0,0), scale(1)">
<path transform="translate(-2.4, -2.4), scale(0.8999999999999999)" d="M16,25.591980285942554C18.770388028816217,25.448639820411984,21.502886007282417,25.353776997314355,23.803108509805625,23.80310850980563C26.7074665266398,21.84516902864335,29.881402801531376,19.485447603497107,30.228501498041783,16C30.593345595146214,12.336359091269117,28.45628705854837,8.704061692531878,25.529142722542886,6.470857277457114C22.878575709493276,4.448661828061677,19.315711949229442,4.797046031452151,16,5.144658165819504C13.128246261672492,5.445726672868024,10.603946144099055,6.566517107522774,8.279294404440412,8.27929440444041C5.369552712094543,10.423159408183519,1.4724795846560734,12.391620582943808,1.2666839262580183,15.999999999999996C1.0580073679405697,19.658892533089112,4.27406451934402,22.655096223544096,7.345364306588923,24.654635693411073C9.873377696843855,26.30047390665219,12.987469503854731,25.74784925420655,16,25.591980285942554" fill="#ffffff" strokewidth="0"/>
</g>
<g id="SVGRepo_tracerCarrier" stroke-linecap="round" stroke-linejoin="round"/>
<g id="SVGRepo_iconCarrier">
<path d="M12,2A10,10,0,1,0,22,12,10,10,0,0,0,12,2ZM10,16,7,17l1-3,7-7,2,2Z"/>
</g>
</svg>